<?xml version="1.0" encoding="UTF-8"?>
<svg xmlns="http://www.w3.org/2000/svg" xmlns:xlink="http://www.w3.org/1999/xlink" width="311.81pt" height="170.08pt" viewBox="0 0 311.81 170.08">
<path fill-rule="nonzero" fill="rgb(68.359375%, 57.421875%, 30.052185%)" fill-opacity="1" d="M 65.585938 156.59375 L 75.445312 156.59375 L 75.445312 155.175781 L 67.109375 155.175781 L 67.109375 150.355469 L 74.480469 150.355469 L 74.480469 148.9375 L 67.109375 148.9375 L 67.109375 144.234375 L 75.347656 144.234375 L 75.347656 142.816406 L 65.585938 142.816406 Z M 89.417969 156.691406 L 90.769531 156.691406 L 96.574219 142.816406 L 94.9375 142.816406 L 90.113281 154.683594 L 85.308594 142.816406 L 83.613281 142.816406 Z M 105.167969 156.59375 L 106.695312 156.59375 L 106.695312 151.238281 L 110.550781 151.238281 L 114.46875 156.59375 L 116.339844 156.59375 L 112.191406 150.964844 C 114.3125 150.570312 115.859375 149.234375 115.859375 146.949219 L 115.859375 146.910156 C 115.859375 145.828125 115.472656 144.863281 114.816406 144.191406 C 113.96875 143.328125 112.636719 142.816406 110.976562 142.816406 L 105.167969 142.816406 Z M 106.695312 149.84375 L 106.695312 144.253906 L 110.859375 144.253906 C 113.039062 144.253906 114.3125 145.277344 114.3125 146.96875 L 114.3125 147.007812 C 114.3125 148.78125 112.867188 149.84375 110.839844 149.84375 Z M 131.195312 156.832031 C 135.300781 156.832031 138.101562 153.503906 138.101562 149.707031 L 138.101562 149.664062 C 138.101562 145.867188 135.339844 142.578125 131.234375 142.578125 C 127.121094 142.578125 124.324219 145.90625 124.324219 149.707031 L 124.324219 149.742188 C 124.324219 153.542969 127.082031 156.832031 131.195312 156.832031 Z M 131.234375 155.394531 C 128.144531 155.394531 125.90625 152.835938 125.90625 149.707031 L 125.90625 149.664062 C 125.90625 146.535156 128.105469 144.015625 131.195312 144.015625 C 134.28125 144.015625 136.519531 146.574219 136.519531 149.707031 L 136.519531 149.742188 C 136.519531 152.875 134.320312 155.394531 131.234375 155.394531 Z M 151.742188 156.789062 C 154.421875 156.789062 156.351562 155.257812 156.351562 152.894531 L 156.351562 152.855469 C 156.351562 150.75 154.960938 149.625 151.953125 148.957031 C 148.980469 148.308594 148.289062 147.578125 148.289062 146.28125 L 148.289062 146.242188 C 148.289062 145 149.40625 144.015625 151.160156 144.015625 C 152.550781 144.015625 153.804688 144.46875 155.058594 145.511719 L 155.945312 144.3125 C 154.578125 143.191406 153.167969 142.617188 151.199219 142.617188 C 148.632812 142.617188 146.761719 144.210938 146.761719 146.378906 L 146.761719 146.417969 C 146.761719 148.683594 148.191406 149.707031 151.296875 150.394531 C 154.132812 151.003906 154.808594 151.730469 154.808594 153.011719 L 154.808594 153.050781 C 154.808594 154.410156 153.613281 155.394531 151.796875 155.394531 C 149.925781 155.394531 148.578125 154.746094 147.167969 153.445312 L 146.222656 154.585938 C 147.84375 156.0625 149.597656 156.789062 151.742188 156.789062 Z M 165.601562 156.59375 L 167.125 156.59375 L 167.125 142.816406 L 165.601562 142.816406 Z M 181.390625 156.789062 C 184.070312 156.789062 186 155.257812 186 152.894531 L 186 152.855469 C 186 150.75 184.613281 149.625 181.601562 148.957031 C 178.632812 148.308594 177.9375 147.578125 177.9375 146.28125 L 177.9375 146.242188 C 177.9375 145 179.054688 144.015625 180.8125 144.015625 C 182.199219 144.015625 183.453125 144.46875 184.707031 145.511719 L 185.597656 144.3125 C 184.226562 143.191406 182.820312 142.617188 180.851562 142.617188 C 178.285156 142.617188 176.414062 144.210938 176.414062 146.378906 L 176.414062 146.417969 C 176.414062 148.683594 177.839844 149.707031 180.945312 150.394531 C 183.78125 151.003906 184.457031 151.730469 184.457031 153.011719 L 184.457031 153.050781 C 184.457031 154.410156 183.261719 155.394531 181.449219 155.394531 C 179.578125 155.394531 178.226562 154.746094 176.816406 153.445312 L 175.871094 154.585938 C 177.492188 156.0625 179.25 156.789062 181.390625 156.789062 Z M 198.339844 156.59375 L 199.882812 156.59375 L 199.882812 144.253906 L 204.417969 144.253906 L 204.417969 142.816406 L 193.804688 142.816406 L 193.804688 144.253906 L 198.339844 144.253906 Z M 213.097656 156.59375 L 222.957031 156.59375 L 222.957031 155.175781 L 214.621094 155.175781 L 214.621094 150.355469 L 221.992188 150.355469 L 221.992188 148.9375 L 214.621094 148.9375 L 214.621094 144.234375 L 222.859375 144.234375 L 222.859375 142.816406 L 213.097656 142.816406 Z M 231.851562 156.59375 L 233.335938 156.59375 L 233.335938 145.453125 L 238.253906 152.816406 L 238.332031 152.816406 L 243.25 145.433594 L 243.25 156.59375 L 244.773438 156.59375 L 244.773438 142.816406 L 243.234375 142.816406 L 238.3125 150.335938 L 233.394531 142.816406 L 231.851562 142.816406 L 231.851562 156.59375 "/>
<path fill-rule="nonzero" fill="rgb(7.835388%, 28.24707%, 20.776367%)" fill-opacity="1" d="M 42.441406 72.441406 C 39.761719 71.605469 36.914062 71.214844 34.125 71.214844 C 27.316406 71.214844 20.121094 73.894531 20.121094 80.925781 C 20.121094 92.753906 39.316406 91.191406 39.316406 99.898438 C 39.316406 103.800781 34.515625 105.699219 31.335938 105.699219 C 26.984375 105.699219 22.40625 103.914062 19.113281 101.070312 L 20.734375 108.042969 C 23.914062 109.214844 27.316406 109.71875 30.722656 109.71875 C 39.425781 109.71875 45.675781 104.136719 45.675781 98.167969 C 45.675781 87.84375 26.480469 87.957031 26.480469 80.3125 C 26.480469 76.460938 30.5 75.234375 33.679688 75.234375 C 36.804688 75.234375 40.261719 76.515625 42.441406 78.75 L 42.441406 72.441406 "/>
<path fill-rule="nonzero" fill="rgb(7.835388%, 28.24707%, 20.776367%)" fill-opacity="1" d="M 58.695312 104.304688 L 58.695312 79.976562 C 58.695312 77.464844 58.304688 73.335938 61.152344 72.277344 L 61.152344 72.109375 L 50.492188 72.109375 L 50.492188 72.277344 C 53.339844 73.335938 53.003906 77.410156 53.003906 79.976562 L 53.003906 101.011719 C 53.003906 103.523438 53.339844 107.652344 50.492188 108.65625 L 50.492188 108.824219 L 73.425781 108.824219 L 76.328125 101.402344 L 76.160156 101.402344 C 73.371094 103.746094 70.078125 105.03125 66.285156 104.808594 L 58.695312 104.304688 "/>
<path fill-rule="nonzero" fill="rgb(7.835388%, 28.24707%, 20.776367%)" fill-opacity="1" d="M 117.582031 90.074219 C 117.582031 80.03125 109.324219 71.105469 97.605469 71.160156 C 85.886719 70.878906 76.679688 79.753906 76.679688 90.355469 C 76.679688 101.792969 86 109.71875 97.046875 109.71875 C 108.152344 109.71875 117.582031 101.460938 117.582031 90.074219 Z M 111.222656 91.191406 C 111.222656 99.503906 105.808594 105.699219 97.328125 105.699219 C 88.566406 105.699219 83.042969 97.664062 83.042969 89.851562 C 83.042969 81.425781 88.566406 75.175781 97.214844 75.175781 C 106.03125 75.175781 111.222656 83.042969 111.222656 91.191406 "/>
<path fill-rule="nonzero" fill="rgb(7.835388%, 28.24707%, 20.776367%)" fill-opacity="1" d="M 233.726562 101.011719 C 233.726562 103.523438 234.058594 107.652344 231.269531 108.65625 L 231.269531 108.824219 L 241.871094 108.824219 L 241.871094 108.65625 C 239.082031 107.597656 239.417969 103.523438 239.417969 101.011719 L 239.417969 79.976562 C 239.417969 77.464844 239.082031 73.335938 241.871094 72.277344 L 241.871094 72.109375 L 231.269531 72.109375 L 231.269531 72.277344 C 234.117188 73.335938 233.726562 77.410156 233.726562 79.976562 L 233.726562 101.011719 "/>
<path fill-rule="nonzero" fill="rgb(7.835388%, 28.24707%, 20.776367%)" fill-opacity="1" d="M 251.933594 108.15625 C 251.933594 114.179688 251.320312 117.53125 245.125 121.492188 L 245.125 121.65625 C 253.328125 120.765625 257.625 117.53125 257.625 111.613281 L 257.625 79.976562 C 257.625 77.410156 257.289062 73.335938 260.078125 72.277344 L 260.078125 72.109375 L 249.421875 72.109375 L 249.421875 72.277344 C 252.269531 73.335938 251.933594 77.410156 251.933594 79.976562 L 251.933594 108.15625 "/>
<path fill-rule="nonzero" fill="rgb(7.835388%, 28.24707%, 20.776367%)" fill-opacity="1" d="M 275.890625 90.914062 L 280.019531 90.914062 C 281.75 90.914062 284.09375 90.855469 284.988281 92.476562 L 285.15625 92.476562 L 285.15625 86.558594 L 284.988281 86.558594 C 284.316406 86.894531 283.425781 86.894531 282.53125 86.894531 L 275.890625 86.894531 L 275.890625 76.515625 C 277.675781 76.179688 279.628906 76.125 281.582031 76.125 C 284.148438 76.125 286.4375 76.347656 288.167969 78.359375 L 288.335938 78.359375 L 288.335938 71.828125 L 288.167969 71.828125 C 287.441406 72.21875 286.492188 72.109375 285.542969 72.109375 L 267.6875 72.109375 L 267.6875 72.277344 C 270.535156 73.335938 270.199219 77.410156 270.199219 79.976562 L 270.199219 101.011719 C 270.199219 103.523438 270.535156 107.652344 267.6875 108.65625 L 267.6875 108.824219 L 290.957031 108.824219 L 293.46875 101.515625 L 293.300781 101.515625 C 290.511719 103.96875 286.660156 105.140625 282.980469 104.808594 L 275.890625 104.136719 L 275.890625 90.914062 "/>
<path fill-rule="nonzero" fill="rgb(7.835388%, 28.24707%, 20.776367%)" fill-opacity="1" d="M 137.117188 102.238281 L 128.242188 77.96875 C 127.796875 76.738281 126.738281 74.003906 126.738281 72.777344 L 126.792969 72.109375 L 119.152344 72.109375 L 118.644531 72.277344 C 121.101562 74.171875 121.9375 77.410156 122.996094 80.253906 L 131.421875 103.078125 C 133.042969 107.484375 134.324219 107.929688 138.230469 110.5 L 152.964844 72.109375 L 144.648438 72.109375 L 144.648438 72.277344 C 148.109375 73.671875 146.210938 78.246094 144.703125 82.207031 L 137.117188 102.238281 "/>
<path fill-rule="nonzero" fill="rgb(7.835388%, 28.24707%, 20.776367%)" fill-opacity="1" d="M 166.265625 90.914062 L 170.394531 90.914062 C 172.125 90.914062 174.464844 90.855469 175.359375 92.476562 L 175.527344 92.476562 L 175.527344 86.558594 L 175.359375 86.558594 C 174.6875 86.894531 173.796875 86.894531 172.902344 86.894531 L 166.265625 86.894531 L 166.265625 76.515625 C 168.050781 76.179688 170.003906 76.125 171.957031 76.125 C 174.523438 76.125 176.808594 76.347656 178.539062 78.359375 L 178.707031 78.359375 L 178.707031 71.828125 L 178.539062 71.828125 C 177.816406 72.21875 176.867188 72.109375 175.917969 72.109375 L 158.0625 72.109375 L 158.0625 72.277344 C 160.90625 73.335938 160.574219 77.410156 160.574219 79.976562 L 160.574219 101.011719 C 160.574219 103.523438 160.90625 107.652344 158.0625 108.65625 L 158.0625 108.824219 L 181.328125 108.824219 L 183.839844 101.515625 L 183.671875 101.515625 C 180.882812 103.96875 177.035156 105.140625 173.351562 104.808594 L 166.265625 104.136719 L 166.265625 90.914062 "/>
<path fill-rule="nonzero" fill="rgb(7.835388%, 28.24707%, 20.776367%)" fill-opacity="1" d="M 194.019531 79.976562 L 213.15625 104.25 C 215.613281 107.429688 217.339844 109.269531 221.304688 110.609375 L 221.304688 79.304688 C 221.304688 76.179688 221.304688 73.949219 224.207031 72.277344 L 224.207031 72.109375 L 214.382812 72.109375 L 214.382812 72.277344 C 217.339844 73.949219 217.285156 76.179688 217.285156 79.304688 L 217.285156 100.453125 L 196.863281 74.675781 L 196.082031 73.558594 C 195.691406 73.113281 195.46875 72.832031 195.246094 72.164062 L 195.246094 72.109375 L 187.097656 72.109375 L 187.097656 72.277344 C 190 73.949219 190 76.179688 190 79.304688 L 190 101.570312 C 190 104.695312 190 106.929688 187.042969 108.65625 L 187.042969 108.824219 L 196.917969 108.824219 L 196.917969 108.65625 C 193.960938 106.929688 194.019531 104.695312 194.019531 101.570312 L 194.019531 79.976562 "/>
<path fill-rule="nonzero" fill="rgb(7.835388%, 28.24707%, 20.776367%)" fill-opacity="1" d="M 82.757812 27.679688 C 85.9375 26.285156 88.335938 24.164062 88.335938 20.425781 C 88.335938 15.460938 84.042969 12.335938 76.675781 12.335938 L 63.453125 12.335938 L 63.453125 12.503906 C 66.296875 13.5625 65.90625 17.636719 65.90625 20.148438 L 65.90625 41.183594 C 65.90625 43.75 66.242188 47.824219 63.453125 48.882812 L 63.453125 49.050781 L 72.65625 49.050781 C 76.84375 49.050781 81.25 49.21875 85.15625 47.320312 C 88.894531 45.535156 91.851562 41.855469 91.851562 37.558594 C 91.851562 32.089844 87.78125 28.742188 82.757812 27.679688 Z M 82.253906 21.320312 C 82.253906 25.894531 77.066406 27.121094 73.4375 27.121094 L 71.597656 27.121094 L 71.597656 16.183594 L 75.335938 15.792969 C 78.683594 15.460938 82.253906 17.46875 82.253906 21.320312 Z M 85.660156 38.058594 C 85.660156 43.359375 81.027344 45.480469 76.453125 45.035156 L 71.597656 44.585938 L 71.597656 30.804688 L 75.503906 30.582031 C 80.414062 30.300781 85.660156 32.644531 85.660156 38.058594 "/>
<path fill-rule="nonzero" fill="rgb(7.835388%, 28.24707%, 20.776367%)" fill-opacity="1" d="M 132.550781 49.050781 L 132.550781 48.882812 C 129.367188 47.265625 128.363281 44.140625 127.082031 40.960938 L 115.476562 12.335938 L 106.660156 12.335938 L 106.660156 12.503906 C 109.335938 13.339844 108.277344 15.683594 107.496094 17.691406 L 98.175781 40.960938 C 96.949219 44.140625 96 47.265625 92.765625 48.882812 L 92.765625 49.050781 L 103.03125 49.050781 L 103.03125 48.882812 C 100.351562 47.878906 100.742188 46.261719 101.914062 43.136719 L 104.816406 35.269531 L 118.878906 35.269531 L 121.890625 43.136719 C 123.398438 47.042969 123.84375 47.65625 121.109375 48.882812 L 121.109375 49.050781 Z M 117.261719 31.140625 L 106.265625 31.140625 L 111.792969 17.078125 Z M 117.261719 31.140625 "/>
<path fill-rule="nonzero" fill="rgb(7.835388%, 28.24707%, 20.776367%)" fill-opacity="1" d="M 253.457031 49.050781 L 253.457031 48.882812 C 250.277344 47.265625 249.273438 44.140625 247.988281 40.960938 L 236.382812 12.335938 L 227.566406 12.335938 L 227.566406 12.503906 C 230.246094 13.339844 229.183594 15.683594 228.402344 17.691406 L 219.085938 40.960938 C 217.855469 44.140625 216.90625 47.265625 213.671875 48.882812 L 213.671875 49.050781 L 223.9375 49.050781 L 223.9375 48.882812 C 221.261719 47.878906 221.652344 46.261719 222.824219 43.136719 L 225.722656 35.269531 L 239.785156 35.269531 L 242.800781 43.136719 C 244.304688 47.042969 244.753906 47.65625 242.019531 48.882812 L 242.019531 49.050781 Z M 238.167969 31.140625 L 227.175781 31.140625 L 232.699219 17.078125 Z M 238.167969 31.140625 "/>
<path fill-rule="nonzero" fill="rgb(7.835388%, 28.24707%, 20.776367%)" fill-opacity="1" d="M 142.09375 20.203125 L 161.230469 44.476562 C 163.6875 47.65625 165.417969 49.5 169.378906 50.835938 L 169.378906 19.535156 C 169.378906 16.410156 169.378906 14.175781 172.28125 12.503906 L 172.28125 12.335938 L 162.460938 12.335938 L 162.460938 12.503906 C 165.417969 14.175781 165.363281 16.410156 165.363281 19.535156 L 165.363281 40.679688 L 144.9375 14.902344 L 144.15625 13.785156 C 143.765625 13.339844 143.542969 13.058594 143.320312 12.390625 L 143.320312 12.335938 L 135.175781 12.335938 L 135.175781 12.503906 C 138.074219 14.175781 138.074219 16.410156 138.074219 19.535156 L 138.074219 41.796875 C 138.074219 44.921875 138.074219 47.152344 135.117188 48.882812 L 135.117188 49.050781 L 144.996094 49.050781 L 144.996094 48.882812 C 142.035156 47.152344 142.09375 44.921875 142.09375 41.796875 L 142.09375 20.203125 "/>
<path fill-rule="nonzero" fill="rgb(7.835388%, 28.24707%, 20.776367%)" fill-opacity="1" d="M 181.84375 41.183594 C 181.84375 43.695312 182.179688 47.824219 179.335938 48.882812 L 179.335938 49.050781 L 190.046875 49.050781 L 190.046875 48.882812 C 187.203125 47.824219 187.539062 43.75 187.539062 41.183594 L 187.539062 20.148438 C 187.539062 17.636719 187.203125 13.507812 190.046875 12.503906 L 190.046875 12.335938 L 179.335938 12.335938 L 179.335938 12.503906 C 182.179688 13.5625 181.84375 17.636719 181.84375 20.148438 L 181.84375 41.183594 "/>
<path fill-rule="nonzero" fill="rgb(7.835388%, 28.24707%, 20.776367%)" fill-opacity="1" d="M 188.261719 29.96875 L 200.652344 46.652344 C 201.65625 47.992188 204.222656 49.050781 206.957031 49.050781 L 212.203125 49.050781 L 212.203125 48.882812 C 209.355469 47.488281 207.234375 45.925781 205.503906 43.640625 L 194.234375 28.851562 L 207.066406 12.390625 L 207.066406 12.335938 L 197.023438 12.335938 L 197.023438 12.503906 C 200.761719 14.175781 197.414062 17.636719 195.574219 20.257812 L 188.261719 29.96875 "/>
<path fill-rule="nonzero" fill="rgb(68.359375%, 57.421875%, 30.052185%)" fill-opacity="1" d="M 296.878906 59.699219 L 14.9375 59.699219 L 15.398438 61.425781 L 296.414062 61.425781 L 296.878906 59.699219 "/>
</svg>
